<svg width="200" height="200" viewBox="0 0 200 200" fill="none" xmlns="http://www.w3.org/2000/svg">
<path d="M100 0C44.7715 0 0 44.7715 0 100C0 155.228 44.7715 200 100 200C155.228 200 200 155.228 200 100C200 44.7715 155.228 0 100 0Z" fill="#A7D1AB"/>
<path d="M132 68C132 54.7452 121.255 44 108 44C94.7452 44 84 54.7452 84 68C84 81.2548 94.7452 92 108 92C121.255 92 132 81.2548 132 68Z" fill="#FDF4DC"/>
<path d="M68 68C68 54.7452 78.7452 44 92 44C105.255 44 116 54.7452 116 68C116 81.2548 105.255 92 92 92C78.7452 92 68 81.2548 68 68Z" fill="black"/>
<path d="M132 68C132 54.7452 121.255 44 108 44C94.7452 44 84 54.7452 84 68C84 81.2548 94.7452 92 108 92C121.255 92 132 81.2548 132 68Z" fill="black"/>
<path d="M64 120C64 120 79 142 136 120" stroke="black" stroke-width="6" stroke-linecap="round"/>
</svg>